#!OML:ASF X:\für Bonn\!DataBase\2005_08_10_Bjorn_Final\c3d\bjorn.ASF
:FULLY-SPECIFIED
:DEGREES
94
root 5.27157 18.3733 8.14488 6.58046 -2.05693 3.27296
lowerback 14.4365 0.611854 0.0564567
upperback 12.5105 0.814556 -0.767933
thorax 5.23121 0.447725 -0.918902
lowerneck -5.68957 -2.4569 1.79962
upperneck 10.8921 -3.5189 0.422899
head 4.60327 -1.62592 -0.378529
rclavicle 7.7526e-015 -1.98785e-015
rhumerus -7.12572 -16.3483 -84.8891
rradius 51.758
rwrist -171.402
rhand 1.90833e-014 -1.04004e-012
rfingers 7.12502
rthumb 25.5904 -28.3008
lclavicle 7.7526e-015 -1.98785e-015
lhumerus -5.85784 -25.1133 82.4046
lradius 50.0006
lwrist 6.72324
lhand -8.79423e-013 -3.30778e-013
lfingers 7.12502
lthumb 25.5904 28.3008
rfemur -46.677 -9.81912 17.4375
rtibia 55.7798
rfoot -1.96918 17.8607
rtoes -4.84106
lfemur -45.445 10.262 -23.3332
ltibia 51.9122
lfoot 0.56744 -5.2598
ltoes -7.52377
95
root 5.2771 18.0187 8.3287 6.27764 -2.04182 3.32603
lowerback 14.84 0.574942 0.0563213
upperback 12.8051 0.763931 -0.711362
thorax 5.3438 0.420885 -0.857675
lowerneck -6.77144 -2.40255 2.05083
upperneck 10.1862 -3.44929 0.0305571
head 4.55399 -1.60809 -0.563167
rclavicle -9.54166e-015 1.78906e-014
rhumerus -7.66054 -18.0909 -84.9617
rradius 50.2882
rwrist -171.26
rhand 3.94389e-013 2.59851e-012
rfingers 7.12502
rthumb 25.5904 -28.3008
lclavicle -9.54166e-015 1.78906e-014
lhumerus -6.70637 -24.1882 83.3115
lradius 47.8258
lwrist 7.28776
lhand 2.16596e-012 7.12444e-013
lfingers 7.12502
lthumb 25.5904 28.3008
rfemur -47.3947 -9.40547 17.2571
rtibia 58.7498
rfoot -5.33564 18.8571
rtoes -1.69419
lfemur -46.3899 9.74322 -23.2326
ltibia 55.4075
lfoot -3.48155 -5.94856
ltoes -6.25686
96
root 5.28364 17.6673 8.51075 5.95866 -2.00467 3.33645
lowerback 15.2849 0.518983 0.117905
upperback 13.0658 0.694484 -0.65971
thorax 5.39946 0.389137 -0.834402
lowerneck -7.81906 -2.33804 2.31913
upperneck 9.50048 -3.374 -0.36677
head 4.5068 -1.5884 -0.751742
rclavicle 1.86858e-014 -6.36111e-015
rhumerus -8.24655 -19.9417 -85.0251
rradius 48.8538
rwrist -171.162
rhand 2.70347e-013 -2.98336e-012
rfingers 7.12502
rthumb 25.5904 -28.3008
lclavicle 1.86858e-014 -6.36111e-015
lhumerus -7.54316 -23.0167 84.2206
lradius 45.4291
lwrist 7.42705
lhand -2.20094e-012 -1.56165e-012
lfingers 7.12502
lthumb 25.5904 28.3008
rfemur -48.1723 -8.95595 17.1064
rtibia 61.9407
rfoot -8.80607 19.3361
rtoes 1.84819
lfemur -47.44 9.29212 -23.1307
ltibia 59.0975
lfoot -7.6753 -6.40125
ltoes -5.66123
97
root 5.28895 17.3273 8.69097 5.68377 -2.01099 3.30371
lowerback 15.7201 0.481934 0.20032
upperback 13.2444 0.651364 -0.588785
thorax 5.37028 0.370579 -0.804732
lowerneck -8.6253 -2.27065 2.44015
upperneck 8.70833 -3.29036 -0.620558
head 4.37838 -1.56512 -0.85843
rclavicle -1.66979e-014 1.03368e-014
rhumerus -9.03361 -21.8432 -84.9343
rradius 47.4282
rwrist -171.246
rhand 1.17362e-012 2.63032e-012
rfingers 7.12502
rthumb 25.5904 -28.3008
lclavicle -1.66979e-014 1.03368e-014
lhumerus -8.47891 -21.5901 85.1865
lradius 42.9269
lwrist 7.04679
lhand 2.07213e-012 8.52389e-013
lfingers 7.12502
lthumb 25.5904 28.3008
rfemur -49.0928 -8.46542 17.0118
rtibia 65.3579
rfoot -12.3083 19.4443
rtoes 4.49547
lfemur -48.5884 8.92848 -23.0183
ltibia 62.8417
lfoot -11.4774 -6.47871
ltoes -5.24238
98
root 5.29463 17.002 8.86826 5.43716 -1.97939 3.22814
lowerback 16.1345 0.421441 0.355752
upperback 13.4347 0.587055 -0.535008
thorax 5.36734 0.347972 -0.831093
lowerneck -9.68895 -2.18178 2.51385
upperneck 8.14027 -3.19698 -0.741246
head 4.38779 -1.5292 -0.91933
rclavicle 3.97569e-016 -8.74653e-015
rhumerus -9.70932 -23.9777 -84.8628
rradius 45.9328
rwrist -171.426
rhand 3.88028e-013 -1.60618e-012
rfingers 7.12502
rthumb 25.5904 -28.3008
lclavicle 3.97569e-016 -8.74653e-015
lhumerus -9.30126 -20.0397 86.0364
lradius 40.4987
lwrist 6.50481
lhand -1.15613e-012 -1.07503e-012
lfingers 7.12502
lthumb 25.5904 28.3008
rfemur -50.0848 -8.04951 16.9704
rtibia 68.9038
rfoot -15.7134 19.3975
rtoes 5.47325
lfemur -49.7709 8.5859 -22.8836
ltibia 66.5911
lfoot -14.6354 -6.34341
ltoes -4.75607
99
root 5.30047 16.6829 9.04586 5.24568 -1.97435 3.13299
lowerback 16.4974 0.362894 0.491413
upperback 13.6167 0.523237 -0.449738
thorax 5.38256 0.322428 -0.812063
lowerneck -10.5126 -2.07829 2.48607
upperneck 7.24681 -3.06957 -0.792559
head 4.23411 -1.48014 -0.926028
rclavicle 4.77083e-015 -2.18663e-014
rhumerus -10.4241 -26.0637 -84.6733
rradius 44.57
rwrist -171.546
rhand -7.50611e-013 -1.8479e-012
rfingers 7.12502
rthumb 25.5904 -28.3008
lclavicle 4.77083e-015 -2.18663e-014
lhumerus -10.0728 -18.2348 86.8674
lradius 38.0995
lwrist 5.61596
lhand -1.32629e-012 -7.85597e-013
lfingers 7.12502
lthumb 25.5904 28.3008
rfemur -51.1448 -7.61412 16.9348
rtibia 72.4864
rfoot -18.8045 19.1897
rtoes 5.08858
lfemur -50.9713 8.34111 -22.7715
ltibia 70.3264
lfoot -17.3146 -6.03188
ltoes -5.32623
100
root 5.30614 16.3905 9.21974 5.12866 -2.01047 3.01348
lowerback 16.8264 0.322296 0.662838
upperback 13.7443 0.487958 -0.386124
thorax 5.35628 0.314642 -0.83878
lowerneck -10.9218 -1.98751 2.47507
upperneck 6.04899 -2.95536 -0.781212
head 3.88961 -1.43682 -0.902651
rclavicle -7.15625e-015 3.18055e-015
rhumerus -11.3306 -28.1854 -84.4203
rradius 43.4902
rwrist -171.489
rhand -7.21986e-013 1.57437e-013
rfingers 7.12502
rthumb 25.5904 -28.3008
lclavicle -7.15625e-015 3.18055e-015
lhumerus -10.9472 -16.2977 87.5766
lradius 35.6915
lwrist 4.43183
lhand 5.56597e-014 3.97569e-013
lfingers 7.12502
lthumb 25.5904 28.3008
rfemur -52.215 -7.1905 16.9283
rtibia 75.9403
rfoot -21.4853 18.9164
rtoes 4.15974
lfemur -52.3401 8.12622 -22.6442
ltibia 74.121
lfoot -19.6439 -5.41696
ltoes -6.79167
101
root 5.31306 16.1158 9.39039 5.11789 -2.03364 2.81152
lowerback 17.0922 0.263678 0.908594
upperback 13.8249 0.43778 -0.282198
thorax 5.31046 0.302591 -0.862011
lowerneck -11.5831 -1.9032 2.32198
upperneck 5.29309 -2.84295 -0.692348
head 3.75769 -1.38859 -0.839655
rclavicle -1.31198e-014 -1.07344e-014
rhumerus -12.2686 -30.1544 -84.0861
rradius 42.4241
rwrist -172.454
rhand 7.37889e-013 -7.36298e-013
rfingers 7.12502
rthumb 25.5904 -28.3008
lclavicle -1.31198e-014 -1.07344e-014
lhumerus -11.8331 -14.143 88.2162
lradius 33.2861
lwrist 2.9433
lhand -4.09496e-013 -2.8784e-013
lfingers 7.12502
lthumb 25.5904 28.3008
rfemur -53.3433 -6.7743 16.9965
rtibia 79.2164
rfoot -23.5619 18.7117
rtoes 4.31589
lfemur -53.7729 7.86796 -22.4353
ltibia 77.8245
lfoot -21.6288 -4.5619
ltoes -8.89277
102
root 5.31879 15.8607 9.55897 5.23502 -2.07909 2.52435
lowerback 17.2711 0.203736 1.25621
upperback 13.8835 0.398443 -0.191697
thorax 5.2871 0.304344 -0.957157
lowerneck -12.5194 -1.82348 2.20181
upperneck 4.89791 -2.74708 -0.606554
head 3.80718 -1.34351 -0.794205
rclavicle 6.36111e-015 -1.23246e-014
rhumerus -13.192 -32.0517 -83.7754
rradius 41.364
rwrist -173.871
rhand -4.32555e-013 -1.13864e-012
rfingers 7.12502
rthumb 25.5904 -28.3008
lclavicle 6.36111e-015 -1.23246e-014
lhumerus -12.6539 -11.8189 88.6814
lradius 31.0154
lwrist 1.31017
lhand -5.23201e-013 -4.13472e-013
lfingers 7.12502
lthumb 25.5904 28.3008
rfemur -54.5542 -6.39581 17.1868
rtibia 82.2871
rfoot -25.3609 18.4714
rtoes 3.96756
lfemur -55.243 7.68131 -22.1582
ltibia 81.3394
lfoot -23.2843 -3.65044
ltoes -11.1666
